<svg width="24" height="24" viewBox="0 0 24 24" fill="none" xmlns="http://www.w3.org/2000/svg">
                    <path d="M9.03145 18.4937C15.0692 18.4937 18.3899 13.4623 18.3899 9.13521C18.3899 9.03458 18.3899 8.83332 18.3899 8.7327C18.9937 8.22955 19.5975 7.72641 20 7.022C19.3962 7.32389 18.7925 7.42452 18.0881 7.52515C18.7925 7.12263 19.2956 6.51886 19.4969 5.71383C18.8931 6.11634 18.1887 6.3176 17.3836 6.51886C16.7799 5.91509 15.8742 5.51257 14.9686 5.51257C13.3585 5.41194 11.8491 6.92138 11.8491 8.7327C11.8491 9.03458 11.8491 9.23584 11.9497 9.4371C9.2327 9.33647 6.71698 8.02829 5.10692 6.01571C4.80503 6.51886 4.7044 7.022 4.7044 7.62578C4.7044 8.7327 5.30818 9.73899 6.21384 10.3428C5.71069 10.3428 5.20755 10.1415 4.7044 9.94024C4.7044 11.5503 5.81132 12.8585 7.32075 13.1604C7.01887 13.3616 6.71698 13.3616 6.41509 13.3616C6.21384 13.3616 6.01258 13.3616 5.81132 13.261C6.21384 14.5692 7.42138 15.5755 8.93082 15.5755C7.8239 16.4811 6.41509 16.9843 4.80503 16.9843C4.50314 16.9843 4.30189 16.9843 4 16.9843C5.50943 17.9906 7.22013 18.4937 9.03145 18.4937Z" fill="#3C3F40"/>
                </svg>