<svg width="155" height="24" viewBox="0 0 155 24" fill="none" xmlns="http://www.w3.org/2000/svg">
            <path d="M24.6587 15.9967L14.2412 0.902318C14.0499 0.624324 13.7927 0.39677 13.4921 0.239496C13.1914 0.0822212 12.8564 0 12.5162 0C12.176 0 11.841 0.0822212 11.5403 0.239496C11.2396 0.39677 10.9825 0.624324 10.7912 0.902318L0.362438 15.9967C0.10314 16.3738 -0.0230359 16.8249 0.00346212 17.28C0.0299601 17.7352 0.207653 18.169 0.509004 18.5142L4.66924 23.2709C4.85184 23.4826 5.07572 23.6559 5.32753 23.7803C5.57934 23.9047 5.85392 23.9777 6.1349 23.995H6.2702C6.78737 23.9952 7.28596 23.8045 7.66822 23.4603L12.1892 19.4277C12.2786 19.3471 12.3952 19.3024 12.5162 19.3024C12.6372 19.3024 12.7538 19.3471 12.8431 19.4277L17.3529 23.4603C17.56 23.6473 17.8031 23.7911 18.0678 23.8832C18.3324 23.9752 18.6131 24.0135 18.8931 23.9958C19.1731 23.9781 19.4466 23.9048 19.6973 23.7803C19.9479 23.6557 20.1706 23.4825 20.3519 23.2709L24.5234 18.5142C24.823 18.1677 24.9987 17.7333 25.0231 17.2781C25.0476 16.823 24.9195 16.3726 24.6587 15.9967ZM19.2695 10.9838L13.3054 16.2974V2.35048L19.2695 10.9838ZM11.7157 2.35048V16.2863L5.77413 10.9726L11.7157 2.35048ZM6.23637 22.4131C6.16806 22.4102 6.10101 22.3939 6.03909 22.3652C5.97718 22.3365 5.92161 22.296 5.87559 22.246L1.71536 17.4782C1.64543 17.3969 1.60429 17.2952 1.59819 17.1886C1.59208 17.0821 1.62135 16.9765 1.68154 16.8878L4.8609 12.2871L11.3324 18.0686L11.1182 18.258L6.59715 22.2906C6.54891 22.3346 6.49192 22.3683 6.4298 22.3894C6.36769 22.4105 6.30182 22.4186 6.23637 22.4131ZM23.3057 17.4782L19.1455 22.246C19.0553 22.3444 18.93 22.4043 18.796 22.4131C18.7288 22.4188 18.6612 22.4108 18.5972 22.3897C18.5332 22.3687 18.4743 22.3349 18.4239 22.2906L18.3901 22.2572L13.7113 18.0686L20.1715 12.2983L23.3396 16.8878C23.3997 16.9765 23.429 17.0821 23.4229 17.1886C23.4168 17.2952 23.3757 17.3969 23.3057 17.4782V17.4782Z" fill="#E01F5C"/>
            <path d="M31.1301 21.3326L37.3648 6.58356H39.631L45.8657 21.3326H43.0358L41.8182 18.3917H35.1776L33.96 21.3326H31.1301ZM36.0119 16.2083H40.9839L38.5035 10.204L36.0119 16.2083Z" fill="white"/>
            <path d="M56.272 12.1646L54.6823 13.8021C54.337 13.4247 53.9137 13.125 53.441 12.9232C52.9684 12.7214 52.4574 12.6223 51.9426 12.6324C51.501 12.6238 51.0622 12.7044 50.6532 12.8691C50.2442 13.0338 49.8735 13.2793 49.5637 13.5904C48.9436 14.2143 48.628 15.0275 48.628 15.9744C48.628 16.9212 48.9436 17.7344 49.5637 18.3694C49.874 18.6791 50.2451 18.9228 50.6542 19.0856C51.0633 19.2485 51.5017 19.327 51.9426 19.3163C52.4562 19.3257 52.966 19.2273 53.4383 19.0276C53.9106 18.8278 54.3346 18.5314 54.6823 18.1577L56.272 19.7841C55.1107 21.0095 53.6789 21.6222 51.9426 21.6222C50.2064 21.6222 48.9098 21.0986 47.7711 20.0181C46.6324 18.9375 46.08 17.5785 46.08 15.9744C46.08 14.3702 46.6324 13.0335 47.7711 11.9529C48.9098 10.8724 50.2966 10.3265 51.9426 10.3265C53.5887 10.3265 55.1107 10.9392 56.272 12.1646Z" fill="white"/>
            <path d="M65.8213 12.2091V10.6607H68.3919V21.3326H65.8213V19.7842C65.4606 20.8202 64.1527 21.5554 62.3714 21.5554C60.8493 21.5554 59.5641 21.0318 58.5156 19.9735C57.467 18.9153 56.9822 17.5785 56.9822 15.9967C56.9822 14.4148 57.4896 13.1003 58.5156 12.042C59.5415 10.9838 60.8493 10.4379 62.3714 10.4379C64.1527 10.4379 65.4606 11.1731 65.8213 12.2091ZM65.0434 18.3249C65.3604 18.0251 65.6105 17.6631 65.7775 17.2621C65.9445 16.8611 66.0247 16.4301 66.013 15.9967C66.0247 15.5632 65.9445 15.1322 65.7775 14.7312C65.6105 14.3302 65.3604 13.9682 65.0434 13.6684C64.7381 13.3662 64.3738 13.1284 63.9726 12.9694C63.5714 12.8105 63.1417 12.7337 62.7096 12.7439C62.2843 12.7346 61.8617 12.8119 61.4679 12.971C61.0742 13.13 60.7178 13.3674 60.4209 13.6684C59.8234 14.2811 59.5302 15.0609 59.5302 15.9967C59.5302 16.9324 59.8234 17.7122 60.4209 18.3249C60.7178 18.6259 61.0742 18.8633 61.4679 19.0223C61.8617 19.1814 62.2843 19.2587 62.7096 19.2495C63.1417 19.2596 63.5714 19.1828 63.9726 19.0239C64.3738 18.8649 64.7381 18.6271 65.0434 18.3249V18.3249Z" fill="white"/>
            <path d="M78.7756 12.2091V6.58356H81.3461V21.3326H78.7756V19.7841C78.4148 20.8201 77.107 21.5554 75.3256 21.5554C73.8036 21.5554 72.5183 21.0318 71.4698 19.9735C70.4213 18.9152 69.9252 17.5785 69.9252 15.9966C69.9252 14.4148 70.4439 13.1003 71.4698 12.042C72.4958 10.9838 73.8036 10.4379 75.3256 10.4379C77.107 10.4379 78.4148 11.1731 78.7756 12.2091ZM77.9977 18.3248C78.3147 18.0251 78.5647 17.663 78.7317 17.2621C78.8987 16.8611 78.9789 16.4301 78.9673 15.9966C78.9789 15.5632 78.8987 15.1322 78.7317 14.7312C78.5647 14.3302 78.3147 13.9682 77.9977 13.6684C77.6923 13.3662 77.328 13.1283 76.9268 12.9694C76.5257 12.8105 76.096 12.7337 75.6639 12.7438C75.2386 12.7346 74.8159 12.8119 74.4222 12.9709C74.0285 13.13 73.6721 13.3674 73.3752 13.6684C72.7776 14.2811 72.4732 15.0609 72.4732 15.9966C72.4732 16.9324 72.7776 17.7122 73.3752 18.3248C73.6721 18.6258 74.0285 18.8633 74.4222 19.0223C74.8159 19.1814 75.2386 19.2587 75.6639 19.2494C76.096 19.2595 76.5257 19.1828 76.9268 19.0239C77.328 18.8649 77.6923 18.6271 77.9977 18.3248V18.3248Z" fill="white"/>
            <path d="M83.1162 7.92033C83.1118 7.62026 83.1976 7.32563 83.3628 7.07383C83.5281 6.82203 83.7653 6.6244 84.0444 6.50599C84.3235 6.38759 84.6319 6.35375 84.9305 6.40877C85.229 6.46379 85.5044 6.60519 85.7215 6.81503C85.9386 7.02487 86.0878 7.29371 86.1501 7.58744C86.2124 7.88116 86.185 8.18655 86.0713 8.46486C85.9577 8.74318 85.763 8.98188 85.5119 9.15069C85.2607 9.3195 84.9645 9.41081 84.6608 9.41305C84.46 9.416 84.2606 9.37964 84.074 9.30608C83.8875 9.23252 83.7175 9.12321 83.574 8.98445C83.4304 8.84569 83.316 8.68023 83.2374 8.49759C83.1589 8.31496 83.1177 8.11877 83.1162 7.92033V7.92033ZM83.3755 21.3326V10.6607H85.9461V21.3326H83.3755Z" fill="white"/>
            <path d="M87.874 10.6607H90.4671V16.8878C90.4671 18.4919 91.3803 19.2717 92.8234 19.2717C94.2665 19.2717 95.1798 18.4697 95.1798 16.8655V10.6607H97.7616V17.0326C97.7616 18.5142 97.2993 19.6616 96.3523 20.4414C95.4052 21.2212 94.2327 21.5999 92.8009 21.5999C91.369 21.5999 90.1852 21.2212 89.2607 20.4414C88.3362 19.6616 87.874 18.5588 87.874 17.0995V10.6607Z" fill="white"/>
            <path d="M99.6895 21.3326V10.6607H102.238V12.1868C102.688 11.1508 103.782 10.449 105.158 10.449C106.533 10.449 107.638 11.0729 108.168 12.3205C108.788 11.0729 109.972 10.449 111.708 10.449C114.076 10.449 115.451 12.0866 115.451 14.7267V21.3326H112.881V15.0832C112.881 13.6239 112.17 12.7215 110.953 12.7215C109.735 12.7215 108.81 13.7353 108.81 15.1946V21.3326H106.262V15.0832C106.262 13.6239 105.563 12.7215 104.335 12.7215C103.106 12.7215 102.238 13.7575 102.238 15.1946V21.3326H99.6895Z" fill="white"/>
            <path d="M122.332 21.375C122.777 21.375 123.138 21.014 123.138 20.5687V15.642H126.183C127.422 15.642 128.493 15.222 129.354 14.382C130.215 13.521 130.656 12.471 130.656 11.19C130.656 9.90898 130.215 8.85898 129.354 8.01898C128.493 7.15798 127.422 6.73798 126.183 6.73798H122.306C121.861 6.73798 121.5 7.09895 121.5 7.54423V20.5687C121.5 21.014 121.861 21.375 122.306 21.375H122.332ZM123.138 8.24998H126.12C126.939 8.24998 127.632 8.52298 128.178 9.08998C128.745 9.65698 129.018 10.35 129.018 11.19C129.018 12.03 128.745 12.723 128.178 13.29C127.632 13.857 126.939 14.13 126.12 14.13H123.138V8.24998Z" fill="white"/>
            <path d="M133.601 21.375C134.03 21.375 134.378 21.0271 134.378 20.598V7.51498C134.378 7.08585 134.03 6.73798 133.601 6.73798V6.73798C133.172 6.73798 132.824 7.08585 132.824 7.51498V20.598C132.824 21.0271 133.172 21.375 133.601 21.375V21.375Z" fill="white"/>
            <path d="M136.676 17.28C136.676 20.052 138.44 21.627 141.044 21.627C143.732 21.627 145.559 19.989 145.559 17.133V11.568C145.559 11.1389 145.211 10.791 144.782 10.791V10.791C144.353 10.791 144.005 11.1389 144.005 11.568V17.112C144.005 19.107 142.892 20.178 141.107 20.178C139.322 20.178 138.23 19.128 138.23 17.133V11.568C138.23 11.1389 137.882 10.791 137.453 10.791V10.791C137.024 10.791 136.676 11.1389 136.676 11.568V17.28Z" fill="white"/>
            <path d="M147.618 18.8567C147.276 18.9872 147.078 19.3603 147.24 19.689C147.854 20.9306 149.256 21.627 151.006 21.627C153.526 21.627 154.891 20.241 154.891 18.561C154.891 16.944 153.862 16.02 151.678 15.18C150.082 14.571 149.368 14.13 149.368 13.269C149.368 12.408 150.04 11.904 151.027 11.904C151.585 11.904 152.036 12.0698 152.387 12.3948C152.674 12.6617 153.091 12.8101 153.439 12.63V12.63C153.79 12.4487 153.938 12.0118 153.698 11.698C153.075 10.8833 152.174 10.476 151.006 10.476C149.137 10.476 147.814 11.652 147.814 13.269C147.814 14.802 148.759 15.6 150.691 16.356C151.678 16.755 152.371 17.091 152.749 17.364C153.148 17.637 153.337 18.036 153.337 18.561C153.337 19.38 152.749 20.178 151.006 20.178C149.948 20.178 149.158 19.8081 148.703 19.2567C148.438 18.935 148.008 18.7082 147.618 18.8567V18.8567Z" fill="white"/>
        </svg>