<svg width="24" height="24" viewBox="0 0 24 24" fill="none" xmlns="http://www.w3.org/2000/svg">
                    <g clip-path="url(#clip0)">
                    <path d="M19.9845 8.70404C19.947 7.8539 19.8096 7.26944 19.6126 6.76299C19.4095 6.22541 19.0969 5.74412 18.6874 5.34401C18.2873 4.93768 17.8028 4.62195 17.2715 4.42196C16.7621 4.22502 16.1807 4.08754 15.3306 4.05006C14.4741 4.0094 14.2022 4 12.0299 4C9.85757 4 9.58567 4.0094 8.73236 4.04688C7.88222 4.08437 7.29775 4.22197 6.79143 4.41878C6.25373 4.62195 5.77243 4.93451 5.37233 5.34401C4.966 5.74412 4.65039 6.22858 4.45028 6.75994C4.25334 7.26944 4.11586 7.85073 4.07838 8.70087C4.03772 9.55736 4.02832 9.82926 4.02832 12.0016C4.02832 14.1739 4.03772 14.4458 4.0752 15.2991C4.11269 16.1492 4.25029 16.7337 4.44722 17.2401C4.65039 17.7777 4.966 18.259 5.37233 18.6591C5.77243 19.0654 6.2569 19.3812 6.78825 19.5812C7.29775 19.7781 7.87904 19.9156 8.7293 19.9531C9.5825 19.9907 9.85452 20 12.0268 20C14.1991 20 14.471 19.9907 15.3243 19.9531C16.1745 19.9156 16.7589 19.7781 17.2653 19.5812C18.3405 19.1654 19.1907 18.3153 19.6064 17.2401C19.8032 16.7306 19.9408 16.1492 19.9783 15.2991C20.0158 14.4458 20.0252 14.1739 20.0252 12.0016C20.0252 9.82926 20.022 9.55736 19.9845 8.70404ZM18.5437 15.2366C18.5093 16.018 18.378 16.4399 18.2686 16.7212C17.9998 17.4183 17.4466 17.9715 16.7495 18.2403C16.4682 18.3497 16.0432 18.481 15.2649 18.5153C14.421 18.5529 14.1679 18.5622 12.033 18.5622C9.89823 18.5622 9.64195 18.5529 8.80109 18.5153C8.01969 18.481 7.59774 18.3497 7.31643 18.2403C6.96956 18.1121 6.65383 17.909 6.39755 17.6433C6.13188 17.3838 5.92871 17.0713 5.80051 16.7244C5.69112 16.4431 5.55987 16.018 5.52556 15.2397C5.48795 14.3958 5.47867 14.1426 5.47867 12.0078C5.47867 9.87297 5.48795 9.6167 5.52556 8.77596C5.55987 7.99455 5.69112 7.5726 5.80051 7.29129C5.92871 6.9443 6.13188 6.62869 6.40073 6.37229C6.66005 6.10661 6.97262 5.90345 7.31961 5.77537C7.60091 5.66597 8.02604 5.53472 8.80427 5.50029C9.64818 5.46281 9.9014 5.45341 12.0361 5.45341C14.1741 5.45341 14.4272 5.46281 15.268 5.50029C16.0494 5.53472 16.4714 5.66597 16.7527 5.77537C17.0996 5.90345 17.4153 6.10661 17.6716 6.37229C17.9373 6.63174 18.1404 6.9443 18.2686 7.29129C18.378 7.5726 18.5093 7.99761 18.5437 8.77596C18.5812 9.61987 18.5906 9.87297 18.5906 12.0078C18.5906 14.1426 18.5812 14.3927 18.5437 15.2366Z" fill="#3C3F40"/>
                    <path d="M12.0296 7.89062C9.76049 7.89062 7.91943 9.73156 7.91943 12.0008C7.91943 14.27 9.76049 16.111 12.0296 16.111C14.2989 16.111 16.1398 14.27 16.1398 12.0008C16.1398 9.73156 14.2989 7.89062 12.0296 7.89062ZM12.0296 14.667C10.5575 14.667 9.36344 13.473 9.36344 12.0008C9.36344 10.5286 10.5575 9.33463 12.0296 9.33463C13.5018 9.33463 14.6958 10.5286 14.6958 12.0008C14.6958 13.473 13.5018 14.667 12.0296 14.667Z" fill="#3C3F40"/>
                    <path d="M17.262 7.72907C17.262 8.25896 16.8323 8.68861 16.3023 8.68861C15.7724 8.68861 15.3428 8.25896 15.3428 7.72907C15.3428 7.19906 15.7724 6.76953 16.3023 6.76953C16.8323 6.76953 17.262 7.19906 17.262 7.72907Z" fill="#3C3F40"/>
                    </g>
                    <defs>
                        <clipPath id="clip0">
                         <rect width="16" height="16" fill="white" transform="translate(4 4)"/>
                        </clipPath>
                    </defs>
                    </svg>