<svg width="24" height="24" viewBox="0 0 24 24" fill="none" xmlns="http://www.w3.org/2000/svg">
                    <g clip-path="url(#clip0)">
                    <path d="M19.6706 8.72119C19.4861 8.04824 18.9457 7.51765 18.2604 7.33647C17.0083 7 12 7 12 7C12 7 6.99178 7 5.73971 7.32353C5.06755 7.50471 4.51401 8.04824 4.32949 8.72119C4 9.95061 4 12.5 4 12.5C4 12.5 4 15.0624 4.32949 16.2789C4.51401 16.9518 5.05437 17.4824 5.73971 17.6636C7.00496 18.0001 12 18.0001 12 18.0001C12 18.0001 17.0083 18.0001 18.2604 17.6766C18.9457 17.4954 19.4861 16.9648 19.6706 16.2918C20.0001 15.0624 20.0001 12.513 20.0001 12.513C20.0001 12.513 20.0133 9.95061 19.6706 8.72119Z" fill="#3C3F40"/>
                    <path d="M14.57 12.4998L10.4053 10.1445V14.8552L14.57 12.4998Z" fill="white"/>
                    </g>
                    <defs>
                    <clipPath id="clip0">
                    <rect width="16" height="11" fill="white" transform="translate(4 7)"/>
                    </clipPath>
                    </defs>
                </svg>