<svg width="24" height="24" viewBox="0 0 24 24" fill="none" xmlns="http://www.w3.org/2000/svg">
                    <path fill-rule="evenodd" clip-rule="evenodd" d="M5.18256 4C4.52961 4 4 4.51348 4 5.14615V18.8543C4 19.4869 4.52961 20 5.18256 20H18.8174C19.4706 20 20 19.4869 20 18.8541V5.14615C20 4.51348 19.4706 4 18.8174 4H5.18256ZM8.8502 10.1687V17.3936H6.43356V10.1687H8.8502ZM9.00942 7.93434C9.00942 8.62766 8.48487 9.18248 7.6423 9.18248H7.64209H7.62646C6.81535 9.18248 6.29102 8.62766 6.29102 7.93434C6.29102 7.22529 6.83119 6.68599 7.65835 6.68599C8.48487 6.68599 8.99358 7.22529 9.00942 7.93434ZM12.6042 17.3936H10.1878C10.188 17.351 10.2193 10.8445 10.188 10.1689H12.6044V11.1917C12.9256 10.6995 13.5005 9.99939 14.7824 9.99939C16.3723 9.99939 17.5644 11.032 17.5644 13.2511V17.3936H15.1479V13.5289C15.1479 12.5576 14.798 11.8951 13.9238 11.8951C13.2561 11.8951 12.8584 12.3419 12.6838 12.7735C12.62 12.9275 12.6042 13.1437 12.6042 13.3594V17.3936ZM10.1878 17.3938V17.3936V17.3938Z" fill="#3C3F40"/>
                </svg>