<svg width="24" height="24" viewBox="0 0 24 24" fill="none" xmlns="http://www.w3.org/2000/svg">
                    <path d="M20 11.9995C20 7.58127 16.4183 3.99955 12 3.99955C7.58172 3.99955 4 7.58127 4 11.9995C4 15.9926 6.92548 19.3022 10.75 19.9023V14.312H8.71875V11.9995H10.75V10.237C10.75 8.23205 11.9443 7.12455 13.7717 7.12455C14.647 7.12455 15.5625 7.2808 15.5625 7.2808V9.24954H14.5537C13.5599 9.24954 13.25 9.86621 13.25 10.4989V11.9995H15.4688L15.1141 14.312H13.25V19.9023C17.0745 19.3022 20 15.9926 20 11.9995Z" fill="#3C3F40"/>
                    <path d="M15.1141 14.3125L15.4688 12H13.25V10.4993C13.25 9.86665 13.5599 9.24998 14.5537 9.24998H15.5625V7.28123C15.5625 7.28123 14.647 7.12498 13.7717 7.12498C11.9443 7.12498 10.75 8.23248 10.75 10.2375V12H8.71875V14.3125H10.75V19.9028C11.1573 19.9667 11.5748 20 12 20C12.4253 20 12.8427 19.9667 13.25 19.9028V14.3125H15.1141Z" fill="white"/>
                </svg>